<svg width="478" height="880" viewBox="0 0 478 880" fill="none" xmlns="http://www.w3.org/2000/svg">
<ellipse cx="278.5" cy="61.5" rx="70.5" ry="61.5" fill="black"/>
<ellipse cx="105.5" cy="97.5" rx="70.5" ry="61.5" fill="black"/>
<ellipse cx="185.5" cy="72" rx="70.5" ry="62" fill="black"/>
<ellipse cx="74" cy="210.5" rx="71" ry="61.5" fill="black"/>
<ellipse cx="408.5" cy="274.5" rx="49.5" ry="47.5" fill="black"/>
<ellipse cx="417" cy="143.5" rx="52" ry="47.5" fill="black"/>
<ellipse cx="54.5" cy="147.5" rx="51.5" ry="47.5" fill="black"/>
<ellipse cx="54.5" cy="259.5" rx="51.5" ry="47.5" fill="black"/>
<ellipse cx="417.5" cy="215" rx="51.5" ry="53" fill="black"/>
<ellipse cx="360" cy="82.5" rx="71" ry="52.5" fill="black"/>
<ellipse cx="104" cy="298.5" rx="63" ry="59.5" fill="black"/>
<ellipse cx="381.5" cy="316" rx="47.5" ry="48" fill="black"/>
<ellipse cx="243" cy="238" rx="203" ry="172" fill="black"/>
<path d="M115 394C115 322.755 172.755 265 244 265C315.245 265 373 322.755 373 394V428.388C373 444.376 370.653 460.278 366.035 475.584L342.841 552.458C337.523 570.083 328.32 586.291 315.909 599.888L303.42 613.57C288.052 630.407 266.308 640 243.512 640C220.063 640 197.761 629.852 182.356 612.171L170.565 598.637C159.419 585.845 151.099 570.844 146.149 554.616L122.099 475.774C117.392 460.343 115 444.3 115 428.167V394Z" fill="black"/>
<path d="M115.821 456.494C116.472 386.081 174.082 329.47 244.495 330.05C314.909 330.63 371.463 388.181 370.811 458.594L370.73 467.405C370.588 482.76 367.853 497.983 362.639 512.432L341.449 571.157C335.061 588.861 324.521 604.779 310.713 617.574L302.352 625.322C285.703 640.75 263.795 649.239 241.108 649.052C217.707 648.86 195.334 639.452 178.839 622.869L171.316 615.306C159.088 603.013 149.804 588.108 144.16 571.709L123.139 510.626C118.1 495.985 115.598 480.588 115.742 465.1L115.821 456.494Z" fill="#6B450C"/>
<path d="M0 768C0 712.772 44.7715 668 100 668H378C433.228 668 478 712.772 478 768V865C478 873.284 471.284 880 463 880H15C6.71574 880 0 873.284 0 865V768Z" fill="#ADE1E4"/>
<path d="M224.329 605.291C226.884 596.245 235.138 590 244.538 590C254.363 590 262.875 596.813 265.028 606.4L271 633L279.958 669.429C283.985 687.887 271.102 705.757 252.317 707.77L249.204 708.103C246.742 708.367 244.258 708.365 241.796 708.098L238.547 707.746C219.431 705.673 205.573 688.558 207.521 669.429L216.5 633L224.329 605.291Z" fill="#6B450C"/>
<path d="M334 879.5C407.6 828.7 374.667 718 357.5 669H377.5C448.7 669 473.833 727.667 477.5 757C477.333 786.333 477.1 848.7 477.5 863.5C477.9 878.3 464.333 880.333 457.5 879.5H334Z" fill="#A6D6D9"/>
<path d="M72 316.843C74.3682 320.151 79.3591 339.011 108.616 339.034" stroke="#545353" stroke-width="3"/>
<path d="M46.3726 211.86C45.172 196.837 57.1539 181.242 57.1539 181.242C57.1539 181.242 41.12 166.21 51.6519 142.138C62.1838 118.066 79.7389 116.113 79.7389 116.113C79.7389 116.113 72.5286 87.4313 103.774 70.2671" stroke="#545353" stroke-width="3"/>
<path d="M46.8278 216C47.0563 218.524 48.4573 220.883 48.4573 220.883" stroke="#545353" stroke-width="3"/>
<path d="M65.2482 303C66.238 308.006 69.0805 312.292 69.0805 312.292" stroke="#545353" stroke-width="3"/>
<path d="M303.335 344.617C301.69 343.986 300.1 343.447 298.579 343C300.203 343.384 301.789 343.926 303.335 344.617C337.475 357.731 395.455 410.815 363.906 506.983C331.26 606.494 327.139 599.371 296 629.738C291.209 634.41 275 642 273 642C360.44 529.985 350.956 365.928 303.335 344.617Z" fill="#613F0C"/>
<path d="M205 668C205 680.113 213.153 713.063 247.5 711C281.423 708.963 283.739 681.122 282.876 668" stroke="#8EB9BC" stroke-width="6"/>
<ellipse cx="278.5" cy="61.5" rx="70.5" ry="61.5" fill="black"/>
<ellipse cx="105.5" cy="97.5" rx="70.5" ry="61.5" fill="black"/>
<ellipse cx="185.5" cy="72" rx="70.5" ry="62" fill="black"/>
<ellipse cx="74" cy="210.5" rx="71" ry="61.5" fill="black"/>
<ellipse cx="408.5" cy="274.5" rx="49.5" ry="47.5" fill="black"/>
<ellipse cx="417" cy="143.5" rx="52" ry="47.5" fill="black"/>
<ellipse cx="54.5" cy="147.5" rx="51.5" ry="47.5" fill="black"/>
<ellipse cx="54.5" cy="259.5" rx="51.5" ry="47.5" fill="black"/>
<ellipse cx="417.5" cy="215" rx="51.5" ry="53" fill="black"/>
<ellipse cx="360" cy="82.5" rx="71" ry="52.5" fill="black"/>
<ellipse cx="104" cy="298.5" rx="63" ry="59.5" fill="black"/>
<ellipse cx="381.5" cy="316" rx="47.5" ry="48" fill="black"/>
<ellipse cx="243" cy="238" rx="203" ry="172" fill="black"/>
<path d="M115 394C115 322.755 172.755 265 244 265C315.245 265 373 322.755 373 394V428.388C373 444.376 370.653 460.278 366.035 475.584L342.841 552.458C337.523 570.083 328.32 586.291 315.909 599.888L303.42 613.57C288.052 630.407 266.308 640 243.512 640C220.063 640 197.761 629.852 182.356 612.171L170.565 598.637C159.419 585.845 151.099 570.844 146.149 554.616L122.099 475.774C117.392 460.343 115 444.3 115 428.167V394Z" fill="black"/>
<path d="M115.821 456.494C116.472 386.081 174.082 329.47 244.495 330.05C314.909 330.63 371.463 388.181 370.811 458.594L370.73 467.405C370.588 482.76 367.853 497.983 362.639 512.432L341.449 571.157C335.061 588.861 324.521 604.779 310.713 617.574L302.352 625.322C285.703 640.75 263.795 649.239 241.108 649.052C217.707 648.86 195.334 639.452 178.839 622.869L171.316 615.306C159.088 603.013 149.804 588.108 144.16 571.709L123.139 510.626C118.1 495.985 115.598 480.588 115.742 465.1L115.821 456.494Z" fill="#6B450C"/>
<path d="M0 768C0 712.772 44.7715 668 100 668H378C433.228 668 478 712.772 478 768V865C478 873.284 471.284 880 463 880H15C6.71574 880 0 873.284 0 865V768Z" fill="#ADE1E4"/>
<path d="M224.329 605.291C226.884 596.245 235.138 590 244.538 590C254.363 590 262.875 596.813 265.028 606.4L271 633L279.958 669.429C283.985 687.887 271.102 705.757 252.317 707.77L249.204 708.103C246.742 708.367 244.258 708.365 241.796 708.098L238.547 707.746C219.431 705.673 205.573 688.558 207.521 669.429L216.5 633L224.329 605.291Z" fill="#6B450C"/>
<path d="M334 879.5C407.6 828.7 374.667 718 357.5 669H377.5C448.7 669 473.833 727.667 477.5 757C477.333 786.333 477.1 848.7 477.5 863.5C477.9 878.3 464.333 880.333 457.5 879.5H334Z" fill="#A6D6D9"/>
<path d="M72 316.843C74.3682 320.151 79.3591 339.011 108.616 339.034" stroke="#545353" stroke-width="3"/>
<path d="M46.3726 211.86C45.172 196.837 57.1539 181.242 57.1539 181.242C57.1539 181.242 41.12 166.21 51.6519 142.138C62.1838 118.066 79.7389 116.113 79.7389 116.113C79.7389 116.113 72.5286 87.4313 103.774 70.2671" stroke="#545353" stroke-width="3"/>
<path d="M46.8278 216C47.0563 218.524 48.4573 220.883 48.4573 220.883" stroke="#545353" stroke-width="3"/>
<path d="M65.2482 303C66.238 308.006 69.0805 312.292 69.0805 312.292" stroke="#545353" stroke-width="3"/>
<path d="M303.335 344.617C301.69 343.986 300.1 343.447 298.579 343C300.203 343.384 301.789 343.926 303.335 344.617C337.475 357.731 395.455 410.815 363.906 506.983C331.26 606.494 327.139 599.371 296 629.738C291.209 634.41 275 642 273 642C360.44 529.985 350.956 365.928 303.335 344.617Z" fill="#613F0C"/>
<path d="M205 668C205 680.113 213.153 713.063 247.5 711C281.423 708.963 283.739 681.122 282.876 668" stroke="#8EB9BC" stroke-width="6"/>
</svg>
